<svg version="1.1" xmlns="http://www.w3.org/2000/svg" viewBox="0 0 5883.249480028865 1590.677293663289" width="5883.249480028865" height="1590.677293663289">
  <!-- svg-source:excalidraw -->
  
  <defs>
    <style class="style-fonts">
      @font-face {
        font-family: "Virgil";
        src: url("https://excalidraw.com/Virgil.woff2");
      }
      @font-face {
        font-family: "Cascadia";
        src: url("https://excalidraw.com/Cascadia.woff2");
      }
      @font-face {
        font-family: "Assistant";
        src: url("https://excalidraw.com/Assistant-Regular.woff2");
      }
    </style>
    
  </defs>
  <rect x="0" y="0" width="5883.249480028865" height="1590.677293663289" fill="#ffffff"></rect><g stroke-linecap="round" transform="translate(10 690.6651608247307) rotate(0 136.5 129)"><path d="M32 0 C96.43 3.18, 156.3 3.37, 241 0 M32 0 C109.08 -0.57, 186.66 -1.03, 241 0 M241 0 C262.45 -0.28, 272.94 12.6, 273 32 M241 0 C261.33 -1.82, 275.26 12.56, 273 32 M273 32 C271.09 104.37, 272.23 178.4, 273 226 M273 32 C272.59 90.28, 272.03 147.35, 273 226 M273 226 C271.04 246.65, 261.7 259.59, 241 258 M273 226 C272.75 246.57, 260.58 258.71, 241 258 M241 258 C195.44 258.88, 150.89 256.35, 32 258 M241 258 C158.37 257.79, 75.08 257.64, 32 258 M32 258 C9.42 258.54, 1.38 246.06, 0 226 M32 258 C10.4 258.14, 1.19 246.62, 0 226 M0 226 C1.11 177.37, 0.76 130.01, 0 32 M0 226 C-1.7 180.4, -0.38 134.21, 0 32 M0 32 C-1.84 10.71, 10.18 -1.15, 32 0 M0 32 C1.48 10.8, 10.1 0.13, 32 0" stroke="#1e1e1e" stroke-width="2" fill="none"></path></g><g transform="translate(43 719.6651608247307) rotate(0 109.49166870117188 103.11991179187339)"><text x="0" y="20.647552623927112" font-family="Virgil, Segoe UI Emoji" font-size="23.570265552428207px" fill="#1e1e1e" text-anchor="start" style="white-space: pre;" direction="ltr" dominant-baseline="alphabetic">Parse the mempool</text><text x="0" y="50.11038456446237" font-family="Virgil, Segoe UI Emoji" font-size="23.570265552428207px" fill="#1e1e1e" text-anchor="start" style="white-space: pre;" direction="ltr" dominant-baseline="alphabetic">folder and</text><text x="0" y="79.57321650499763" font-family="Virgil, Segoe UI Emoji" font-size="23.570265552428207px" fill="#1e1e1e" text-anchor="start" style="white-space: pre;" direction="ltr" dominant-baseline="alphabetic">initialize the </text><text x="0" y="109.03604844553288" font-family="Virgil, Segoe UI Emoji" font-size="23.570265552428207px" fill="#1e1e1e" text-anchor="start" style="white-space: pre;" direction="ltr" dominant-baseline="alphabetic">individual</text><text x="0" y="138.49888038606815" font-family="Virgil, Segoe UI Emoji" font-size="23.570265552428207px" fill="#1e1e1e" text-anchor="start" style="white-space: pre;" direction="ltr" dominant-baseline="alphabetic">transactions with</text><text x="0" y="167.96171232660342" font-family="Virgil, Segoe UI Emoji" font-size="23.570265552428207px" fill="#1e1e1e" text-anchor="start" style="white-space: pre;" direction="ltr" dominant-baseline="alphabetic">Transaction Class.</text><text x="0" y="197.42454426713866" font-family="Virgil, Segoe UI Emoji" font-size="23.570265552428207px" fill="#1e1e1e" text-anchor="start" style="white-space: pre;" direction="ltr" dominant-baseline="alphabetic">   </text></g><g transform="translate(10 651.6651608247307) rotate(0 165.4166717529297 13.970917923169793)"><text x="0" y="19.581638561114787" font-family="Virgil, Segoe UI Emoji" font-size="22.353468677071675px" fill="#1e1e1e" text-anchor="start" style="white-space: pre;" direction="ltr" dominant-baseline="alphabetic">helper.Transaction(json_data)</text></g><g stroke-linecap="round"><g transform="translate(290 815.6651608247307) rotate(0 227 1.5)"><path d="M1.15 -0.72 C76.79 -0.31, 379.38 2.14, 454.73 2.61 M0.29 1.51 C75.76 2.08, 378.25 3.71, 454.17 3.95" stroke="#1e1e1e" stroke-width="2" fill="none"></path></g><g transform="translate(290 815.6651608247307) rotate(0 227 1.5)"><path d="M430.64 12.39 C438.21 10.23, 447.55 4.64, 454.17 3.95 M430.64 12.39 C434.98 11.3, 440.97 8.74, 454.17 3.95" stroke="#1e1e1e" stroke-width="2" fill="none"></path></g><g transform="translate(290 815.6651608247307) rotate(0 227 1.5)"><path d="M430.72 -4.71 C438.28 -0.48, 447.59 0.31, 454.17 3.95 M430.72 -4.71 C435.02 -1.96, 440.99 -0.68, 454.17 3.95" stroke="#1e1e1e" stroke-width="2" fill="none"></path></g></g><mask></mask><g transform="translate(338 779.6651608247307) rotate(0 184.5749969482422 13.585231781959209)"><text x="0" y="19.041060865594012" font-family="Virgil, Segoe UI Emoji" font-size="21.73637085113472px" fill="#1e1e1e" text-anchor="start" style="white-space: pre;" direction="ltr" dominant-baseline="alphabetic">transaction.is_transaction_valid()</text></g><g stroke-linecap="round" transform="translate(754 664.6651608247307) rotate(0 144 140)"><path d="M32 0 C98.79 -3.02, 164.3 -1.92, 256 0 M32 0 C103.32 -0.98, 175.18 -0.64, 256 0 M256 0 C276.2 -1.08, 286.28 10.05, 288 32 M256 0 C276.62 -1.04, 289.25 10.25, 288 32 M288 32 C287.36 87.79, 286.18 141.11, 288 248 M288 32 C287.35 103.8, 286.98 176.4, 288 248 M288 248 C286.1 268.92, 276.62 281.89, 256 280 M288 248 C288.22 267.34, 278.83 277.93, 256 280 M256 280 C179.55 277.94, 101.74 277.66, 32 280 M256 280 C198.23 280.94, 140.94 281.17, 32 280 M32 280 C11.27 281.95, -1.62 268.25, 0 248 M32 280 C8.82 280.85, 2.04 271.41, 0 248 M0 248 C2.37 177.98, 1.74 109.43, 0 32 M0 248 C1.09 190.77, 1.66 133.78, 0 32 M0 32 C1.37 8.92, 12.02 1.35, 32 0 M0 32 C-0.38 9.58, 11.82 -0.39, 32 0" stroke="#1e1e1e" stroke-width="2" fill="none"></path></g><g transform="translate(775 684.6651608247307) rotate(0 131.99166870117188 125.6)"><text x="0" y="22.005119999999998" font-family="Virgil, Segoe UI Emoji" font-size="25.119999999999997px" fill="#1e1e1e" text-anchor="start" style="white-space: pre;" direction="ltr" dominant-baseline="alphabetic">Check the type of</text><text x="0" y="53.40512" font-family="Virgil, Segoe UI Emoji" font-size="25.119999999999997px" fill="#1e1e1e" text-anchor="start" style="white-space: pre;" direction="ltr" dominant-baseline="alphabetic"> script </text><text x="0" y="84.80511999999999" font-family="Virgil, Segoe UI Emoji" font-size="25.119999999999997px" fill="#1e1e1e" text-anchor="start" style="white-space: pre;" direction="ltr" dominant-baseline="alphabetic">if it is a p2pkh or</text><text x="0" y="116.20512" font-family="Virgil, Segoe UI Emoji" font-size="25.119999999999997px" fill="#1e1e1e" text-anchor="start" style="white-space: pre;" direction="ltr" dominant-baseline="alphabetic"> v0_p2wpkh</text><text x="0" y="147.60512" font-family="Virgil, Segoe UI Emoji" font-size="25.119999999999997px" fill="#1e1e1e" text-anchor="start" style="white-space: pre;" direction="ltr" dominant-baseline="alphabetic">proceed further else </text><text x="0" y="179.00512" font-family="Virgil, Segoe UI Emoji" font-size="25.119999999999997px" fill="#1e1e1e" text-anchor="start" style="white-space: pre;" direction="ltr" dominant-baseline="alphabetic">fail the </text><text x="0" y="210.40511999999998" font-family="Virgil, Segoe UI Emoji" font-size="25.119999999999997px" fill="#1e1e1e" text-anchor="start" style="white-space: pre;" direction="ltr" dominant-baseline="alphabetic">transaction</text><text x="0" y="241.80512" font-family="Virgil, Segoe UI Emoji" font-size="25.119999999999997px" fill="#1e1e1e" text-anchor="start" style="white-space: pre;" direction="ltr" dominant-baseline="alphabetic"></text></g><g stroke-linecap="round"><g transform="translate(1056.9765625 793.0783442395496) rotate(0 112.00000000000011 -107.83690956670276)"><path d="M0.66 0.16 C37.97 -35.68, 185.68 -179.68, 222.97 -215.52 M-0.45 -0.81 C37.29 -36.38, 187.76 -177.91, 225.15 -213.91" stroke="#1e1e1e" stroke-width="2" fill="none"></path></g><g transform="translate(1056.9765625 793.0783442395496) rotate(0 112.00000000000011 -107.83690956670276)"><path d="M214 -191.53 C216.92 -198.43, 219.46 -201.18, 225.15 -213.91 M214 -191.53 C218.04 -199.51, 222.83 -207.48, 225.15 -213.91" stroke="#1e1e1e" stroke-width="2" fill="none"></path></g><g transform="translate(1056.9765625 793.0783442395496) rotate(0 112.00000000000011 -107.83690956670276)"><path d="M202.22 -203.92 C207.78 -208.05, 213.03 -207.95, 225.15 -213.91 M202.22 -203.92 C210.53 -207.4, 219.63 -210.84, 225.15 -213.91" stroke="#1e1e1e" stroke-width="2" fill="none"></path></g></g><mask></mask><g stroke-linecap="round"><g transform="translate(1056.9765625 794.5423175288902) rotate(0 123.8584616444216 105.6474805651815)"><path d="M-0.95 0.9 C40.21 35.79, 205.79 175.28, 247.23 210.18 M0.75 0.33 C41.69 35.26, 204.99 176.01, 246.03 211.13" stroke="#1e1e1e" stroke-width="2" fill="none"></path></g><g transform="translate(1056.9765625 794.5423175288902) rotate(0 123.8584616444216 105.6474805651815)"><path d="M222.64 202.31 C231.69 204.51, 235.81 208.13, 246.03 211.13 M222.64 202.31 C227.8 204.88, 232.13 205.55, 246.03 211.13" stroke="#1e1e1e" stroke-width="2" fill="none"></path></g><g transform="translate(1056.9765625 794.5423175288902) rotate(0 123.8584616444216 105.6474805651815)"><path d="M233.78 189.34 C239.35 195.6, 239.91 203.38, 246.03 211.13 M233.78 189.34 C236.54 194.62, 238.48 198.07, 246.03 211.13" stroke="#1e1e1e" stroke-width="2" fill="none"></path></g></g><mask></mask><g transform="translate(1109.4689637831784 617.0493960425603) rotate(310.74970837158907 39.18333435058594 18.26419881398732)"><text x="0" y="25.599101057684635" font-family="Virgil, Segoe UI Emoji" font-size="29.22271810237972px" fill="#1e1e1e" text-anchor="start" style="white-space: pre;" direction="ltr" dominant-baseline="alphabetic">p2pkh</text></g><g transform="translate(1122.3725592100823 925.2856551519781) rotate(39.680486953607605 67.89167022705078 15.917792391195235)"><text x="0" y="22.310377815499223" font-family="Virgil, Segoe UI Emoji" font-size="25.46846782591236px" fill="#1e1e1e" text-anchor="start" style="white-space: pre;" direction="ltr" dominant-baseline="alphabetic">v0_p2wpkh</text></g><g stroke-linecap="round" transform="translate(1284.830078125 331.0487057466057) rotate(0 227.5 156)"><path d="M32 0 C140.17 -0.93, 247.35 0.23, 423 0 M32 0 C135.48 0.07, 238.36 0.21, 423 0 M423 0 C444.51 -1.51, 454.36 9.83, 455 32 M423 0 C442.19 0.63, 455.54 10.3, 455 32 M455 32 C453.27 81.51, 452.31 132.41, 455 280 M455 32 C455.12 114.34, 455.62 198.64, 455 280 M455 280 C456.87 301.16, 443.84 310.13, 423 312 M455 280 C453.98 302.61, 443.42 312.82, 423 312 M423 312 C323.73 315.11, 223.38 315.16, 32 312 M423 312 C315.02 310.21, 206.31 310.47, 32 312 M32 312 C8.86 311.01, -0.13 302.79, 0 280 M32 312 C12.27 313.77, -1.27 300.29, 0 280 M0 280 C-0.19 227.92, 0.87 174.25, 0 32 M0 280 C1.16 189.71, 1.43 100.4, 0 32 M0 32 C-0.29 8.82, 9.52 0.95, 32 0 M0 32 C0.29 8.69, 11.4 -1.26, 32 0" stroke="#1e1e1e" stroke-width="2" fill="none"></path></g><g transform="translate(1310.2339751285472 386.6973384502971) rotate(0 204.85833740234375 101.39428309049909)"><text x="0" y="15.790469686627059" font-family="Virgil, Segoe UI Emoji" font-size="18.025650327199838px" fill="#1e1e1e" text-anchor="start" style="white-space: pre;" direction="ltr" dominant-baseline="alphabetic">* Create an empty stack []</text><text x="0" y="38.32253259562685" font-family="Virgil, Segoe UI Emoji" font-size="18.025650327199838px" fill="#1e1e1e" text-anchor="start" style="white-space: pre;" direction="ltr" dominant-baseline="alphabetic">* Extract the asm instructions</text><text x="0" y="60.85459550462666" font-family="Virgil, Segoe UI Emoji" font-size="18.025650327199838px" fill="#1e1e1e" text-anchor="start" style="white-space: pre;" direction="ltr" dominant-baseline="alphabetic">* script_sig_inst + script_sig_prevout_inst</text><text x="0" y="83.38665841362646" font-family="Virgil, Segoe UI Emoji" font-size="18.025650327199838px" fill="#1e1e1e" text-anchor="start" style="white-space: pre;" direction="ltr" dominant-baseline="alphabetic">*  Generate the message </text><text x="0" y="105.91872132262625" font-family="Virgil, Segoe UI Emoji" font-size="18.025650327199838px" fill="#1e1e1e" text-anchor="start" style="white-space: pre;" direction="ltr" dominant-baseline="alphabetic">* Pass asm instr, message and stack to </text><text x="0" y="128.45078423162605" font-family="Virgil, Segoe UI Emoji" font-size="18.025650327199838px" fill="#1e1e1e" text-anchor="start" style="white-space: pre;" direction="ltr" dominant-baseline="alphabetic">the verification function to </text><text x="0" y="150.98284714062586" font-family="Virgil, Segoe UI Emoji" font-size="18.025650327199838px" fill="#1e1e1e" text-anchor="start" style="white-space: pre;" direction="ltr" dominant-baseline="alphabetic">check the validity of the transaction.</text><text x="0" y="173.51491004962566" font-family="Virgil, Segoe UI Emoji" font-size="18.025650327199838px" fill="#1e1e1e" text-anchor="start" style="white-space: pre;" direction="ltr" dominant-baseline="alphabetic">* Inside the verification function we implement</text><text x="0" y="196.04697295862545" font-family="Virgil, Segoe UI Emoji" font-size="18.025650327199838px" fill="#1e1e1e" text-anchor="start" style="white-space: pre;" direction="ltr" dominant-baseline="alphabetic">various switch cases to handle OP codes</text></g><g stroke-linecap="round" transform="translate(2147.0069697884583 628.5937061857283) rotate(0 237.38908093674854 170.38519531319355)"><path d="M297.5 42.75 C326.08 61.8, 351.42 80.45, 415.28 128.25 M297.5 42.75 C333.91 70.2, 371.12 94.88, 415.28 128.25 M415.28 128.25 C474.49 169.64, 476.22 171.97, 415.28 213.75 M415.28 128.25 C476.78 169.56, 475.2 171.57, 415.28 213.75 M415.28 213.75 C389.12 234.16, 358.43 253.21, 297.5 298.02 M415.28 213.75 C389.14 233.23, 361.2 252.34, 297.5 298.02 M297.5 298.02 C239.21 340.63, 237.47 340.78, 178.5 298.02 M297.5 298.02 C239.36 338.66, 238 340.11, 178.5 298.02 M178.5 298.02 C153.56 280.52, 127.91 263.63, 59.5 213.75 M178.5 298.02 C133.13 264.96, 86.26 232.63, 59.5 213.75 M59.5 213.75 C1.39 172.08, 1.69 171.7, 59.5 128.25 M59.5 213.75 C0.32 169.16, 1.99 169.7, 59.5 128.25 M59.5 128.25 C86.67 109.02, 110.19 90.5, 178.5 42.75 M59.5 128.25 C105.76 96.07, 151.5 62.62, 178.5 42.75 M178.5 42.75 C236.04 -0.44, 236.53 -1.87, 297.5 42.75 M178.5 42.75 C239.3 1.59, 236.05 0.71, 297.5 42.75" stroke="#1e1e1e" stroke-width="2" fill="none"></path></g><g stroke-linecap="round"><g transform="translate(1757.5848113774323 564.7941641887365) rotate(0 189.59893298449947 118.670262304423)"><path d="M-0.87 -0.19 C62.54 39.24, 316.01 197.34, 379.31 236.73 M0.87 -1.33 C64.24 38.23, 315.56 198.25, 378.43 237.95" stroke="#1e1e1e" stroke-width="2" fill="none"></path></g><g transform="translate(1757.5848113774323 564.7941641887365) rotate(0 189.59893298449947 118.670262304423)"><path d="M354.01 232.59 C358.65 234.04, 362.89 234.58, 378.43 237.95 M354.01 232.59 C359.65 232.78, 364.41 235.58, 378.43 237.95" stroke="#1e1e1e" stroke-width="2" fill="none"></path></g><g transform="translate(1757.5848113774323 564.7941641887365) rotate(0 189.59893298449947 118.670262304423)"><path d="M363.17 218.15 C365.98 222.46, 368.36 225.91, 378.43 237.95 M363.17 218.15 C366.84 221.27, 369.75 226.99, 378.43 237.95" stroke="#1e1e1e" stroke-width="2" fill="none"></path></g></g><mask></mask><g transform="translate(1872.1934584554356 621.199412152583) rotate(35.70586788547354 98.08333587646484 19.892259480169315)"><text x="0" y="27.88099088740531" font-family="Virgil, Segoe UI Emoji" font-size="31.827615168270906px" fill="#1e1e1e" text-anchor="start" style="white-space: pre;" direction="ltr" dominant-baseline="alphabetic">verify_p2pkh</text></g><g transform="translate(2262.2610887321466 729.7875570824579) rotate(0 132.24166870117188 79.19807326983845)"><text x="0" y="12.333779943889507" font-family="Virgil, Segoe UI Emoji" font-size="14.079657470193501px" fill="#1e1e1e" text-anchor="start" style="white-space: pre;" direction="ltr" dominant-baseline="alphabetic">if verification_status == False:</text><text x="0" y="29.933351781631384" font-family="Virgil, Segoe UI Emoji" font-size="14.079657470193501px" fill="#1e1e1e" text-anchor="start" style="white-space: pre;" direction="ltr" dominant-baseline="alphabetic">       return False</text><text x="0" y="47.532923619373264" font-family="Virgil, Segoe UI Emoji" font-size="14.079657470193501px" fill="#1e1e1e" text-anchor="start" style="white-space: pre;" direction="ltr" dominant-baseline="alphabetic">elif verification_status == True:</text><text x="0" y="65.13249545711514" font-family="Virgil, Segoe UI Emoji" font-size="14.079657470193501px" fill="#1e1e1e" text-anchor="start" style="white-space: pre;" direction="ltr" dominant-baseline="alphabetic">        individual_vin_check = </text><text x="0" y="82.73206729485702" font-family="Virgil, Segoe UI Emoji" font-size="14.079657470193501px" fill="#1e1e1e" text-anchor="start" style="white-space: pre;" direction="ltr" dominant-baseline="alphabetic">            individual_vin_check + 1</text><text x="0" y="100.3316391325989" font-family="Virgil, Segoe UI Emoji" font-size="14.079657470193501px" fill="#1e1e1e" text-anchor="start" style="white-space: pre;" direction="ltr" dominant-baseline="alphabetic"></text><text x="0" y="117.93121097034077" font-family="Virgil, Segoe UI Emoji" font-size="14.079657470193501px" fill="#1e1e1e" text-anchor="start" style="white-space: pre;" direction="ltr" dominant-baseline="alphabetic">if len(self.vin) == individual_vin_check:</text><text x="0" y="135.53078280808265" font-family="Virgil, Segoe UI Emoji" font-size="14.079657470193501px" fill="#1e1e1e" text-anchor="start" style="white-space: pre;" direction="ltr" dominant-baseline="alphabetic">        return True</text><text x="0" y="153.13035464582453" font-family="Virgil, Segoe UI Emoji" font-size="14.079657470193501px" fill="#1e1e1e" text-anchor="start" style="white-space: pre;" direction="ltr" dominant-baseline="alphabetic"></text></g><g stroke-linecap="round"><g transform="translate(2616.4461045757025 804.0418882079854) rotate(0 185.92492596202055 -2.7929513189392594)"><path d="M0.11 -0.15 C62 -0.86, 310.54 -3.35, 372.44 -4.44 M-1.3 -1.27 C60.39 -2.27, 309.83 -5.19, 371.8 -5.95" stroke="#1e1e1e" stroke-width="2" fill="none"></path></g><g transform="translate(2616.4461045757025 804.0418882079854) rotate(0 185.92492596202055 -2.7929513189392594)"><path d="M348.42 2.88 C357.34 0.39, 368.65 -4.61, 371.8 -5.95 M348.42 2.88 C354.3 0.73, 357.66 -1.12, 371.8 -5.95" stroke="#1e1e1e" stroke-width="2" fill="none"></path></g><g transform="translate(2616.4461045757025 804.0418882079854) rotate(0 185.92492596202055 -2.7929513189392594)"><path d="M348.21 -14.22 C357.19 -10.02, 368.58 -8.32, 371.8 -5.95 M348.21 -14.22 C354.01 -12.74, 357.41 -10.96, 371.8 -5.95" stroke="#1e1e1e" stroke-width="2" fill="none"></path></g></g><mask></mask><g transform="translate(2730.537400007532 742.4850494369151) rotate(359.29901542312155 33.775001525878906 18.01235659462499)"><text x="0" y="25.24611900302639" font-family="Virgil, Segoe UI Emoji" font-size="28.81977055139999px" fill="#1e1e1e" text-anchor="start" style="white-space: pre;" direction="ltr" dominant-baseline="alphabetic">True</text></g><g stroke-linecap="round"><g transform="translate(2385.170433542893 614.9303239225708) rotate(0 0.816096172934067 -234.22534406139914)"><path d="M0.69 -0.89 C0.96 -78.85, 0.35 -390.03, 0.6 -467.96 M-0.4 1.26 C0.31 -77.05, 2.42 -391.75, 2.77 -469.82" stroke="#1e1e1e" stroke-width="2" fill="none"></path></g><g transform="translate(2385.170433542893 614.9303239225708) rotate(0 0.816096172934067 -234.22534406139914)"><path d="M11.18 -446.28 C7.91 -453.07, 8.37 -455.59, 2.77 -469.82 M11.18 -446.28 C7.6 -452.45, 5.51 -459.57, 2.77 -469.82" stroke="#1e1e1e" stroke-width="2" fill="none"></path></g><g transform="translate(2385.170433542893 614.9303239225708) rotate(0 0.816096172934067 -234.22534406139914)"><path d="M-5.92 -446.38 C-5.48 -453.25, -1.3 -455.74, 2.77 -469.82 M-5.92 -446.38 C-4.41 -452.6, -1.42 -459.69, 2.77 -469.82" stroke="#1e1e1e" stroke-width="2" fill="none"></path></g></g><mask></mask><g transform="translate(2297.2990454116407 359.0063215839659) rotate(268.5354227126879 39.78333282470703 19.857081278849712)"><text x="0" y="27.831685120435758" font-family="Virgil, Segoe UI Emoji" font-size="31.771330046159537px" fill="#1e1e1e" text-anchor="start" style="white-space: pre;" direction="ltr" dominant-baseline="alphabetic">false</text></g><g stroke-linecap="round" transform="translate(2306.618948582991 12.808293720592303) rotate(0 79.99767979521016 61.949422768242016)"><path d="M109.14 3 C119.82 5.28, 129.28 13.05, 137.08 19.68 C144.88 26.32, 152.17 34.51, 155.94 42.8 C159.71 51.1, 161.07 60.69, 159.69 69.46 C158.3 78.22, 154.08 87.71, 147.65 95.4 C141.22 103.09, 131.16 111.04, 121.11 115.61 C111.05 120.17, 99.01 122.11, 87.33 122.78 C75.65 123.44, 62 122.63, 51.05 119.6 C40.09 116.56, 29.43 110.94, 21.62 104.56 C13.81 98.18, 7.62 89.81, 4.17 81.32 C0.72 72.83, -0.55 62.53, 0.91 53.61 C2.36 44.69, 6.64 35.18, 12.91 27.79 C19.17 20.4, 28.61 13.74, 38.5 9.29 C48.39 4.83, 59.56 1.54, 72.26 1.07 C84.95 0.6, 106.93 4.91, 114.68 6.47 C122.43 8.02, 119.48 9.71, 118.77 10.42 M43.26 6.93 C52.54 2.44, 67.86 1.1, 79.2 0.66 C90.54 0.21, 100.81 0.61, 111.3 4.25 C121.79 7.9, 134.33 15.59, 142.13 22.53 C149.94 29.46, 155.66 37.51, 158.14 45.85 C160.62 54.2, 159.28 63.77, 157.01 72.58 C154.75 81.39, 151.39 91.34, 144.55 98.72 C137.7 106.09, 126.46 112.66, 115.96 116.82 C105.46 120.97, 93.07 123.34, 81.57 123.66 C70.07 123.98, 57.23 122.3, 46.96 118.73 C36.68 115.16, 27.35 108.91, 19.89 102.22 C12.43 95.54, 5.03 87.2, 2.2 78.61 C-0.64 70.02, 0.63 59.56, 2.89 50.7 C5.15 41.84, 9.14 32.63, 15.76 25.46 C22.39 18.29, 37.86 10.63, 42.64 7.67 C47.42 4.71, 43.64 7.05, 44.44 7.69" stroke="#1e1e1e" stroke-width="2" fill="none"></path></g><g transform="translate(2332.381263684162 42.337564461315424) rotate(0 48.141666412353516 32.932573236709004)"><text x="0" y="23.079147324285678" font-family="Virgil, Segoe UI Emoji" font-size="26.346058589367207px" fill="#1e1e1e" text-anchor="start" style="white-space: pre;" direction="ltr" dominant-baseline="alphabetic">Reject </text><text x="0" y="56.01172056099469" font-family="Virgil, Segoe UI Emoji" font-size="26.346058589367207px" fill="#1e1e1e" text-anchor="start" style="white-space: pre;" direction="ltr" dominant-baseline="alphabetic">(Pass)</text></g><g stroke-linecap="round" transform="translate(2997.429323824289 724.5483812059738) rotate(0 190.72617560931212 91.21686659575792)"><path d="M32 0 C116.93 0.82, 199.91 0.61, 349.45 0 M32 0 C157.49 -1.44, 284.25 -1.03, 349.45 0 M349.45 0 C369.35 0.18, 380.23 9.73, 381.45 32 M349.45 0 C370.11 -1.03, 381.6 11.96, 381.45 32 M381.45 32 C384.4 76.86, 383.47 118.89, 381.45 150.43 M381.45 32 C381.31 70.42, 381.07 109.8, 381.45 150.43 M381.45 150.43 C381.82 171.95, 372.39 182.98, 349.45 182.43 M381.45 150.43 C383.2 172.5, 372.38 183.78, 349.45 182.43 M349.45 182.43 C251.29 185.89, 151.25 183.65, 32 182.43 M349.45 182.43 C278.02 180.28, 205.91 181.13, 32 182.43 M32 182.43 C9.52 182.53, -1.34 171.78, 0 150.43 M32 182.43 C10.61 180.33, 0.65 172.03, 0 150.43 M0 150.43 C-0.77 108.73, 0.94 67.47, 0 32 M0 150.43 C-1.49 108.15, 0.19 66.42, 0 32 M0 32 C-0.74 12.58, 8.7 -1.92, 32 0 M0 32 C-1.6 8.38, 8.86 1.43, 32 0" stroke="#1e1e1e" stroke-width="2" fill="none"></path></g><g transform="translate(3019.5611495525727 758.9684970804669) rotate(0 164.8000030517578 60.414336891473994)"><text x="0" y="16.935346917417995" font-family="Virgil, Segoe UI Emoji" font-size="19.33258780527168px" fill="#1e1e1e" text-anchor="start" style="white-space: pre;" direction="ltr" dominant-baseline="alphabetic">* Serialize transaction</text><text x="0" y="41.101081674007595" font-family="Virgil, Segoe UI Emoji" font-size="19.33258780527168px" fill="#1e1e1e" text-anchor="start" style="white-space: pre;" direction="ltr" dominant-baseline="alphabetic">transaction.serialise_transaction()</text><text x="0" y="65.2668164305972" font-family="Virgil, Segoe UI Emoji" font-size="19.33258780527168px" fill="#1e1e1e" text-anchor="start" style="white-space: pre;" direction="ltr" dominant-baseline="alphabetic">* Calculate wtxid and txid</text><text x="0" y="89.43255118718679" font-family="Virgil, Segoe UI Emoji" font-size="19.33258780527168px" fill="#1e1e1e" text-anchor="start" style="white-space: pre;" direction="ltr" dominant-baseline="alphabetic">* Create a list of valid txid and</text><text x="0" y="113.5982859437764" font-family="Virgil, Segoe UI Emoji" font-size="19.33258780527168px" fill="#1e1e1e" text-anchor="start" style="white-space: pre;" direction="ltr" dominant-baseline="alphabetic">wtxid.</text></g><g stroke-linecap="round" transform="translate(1315.6658631618143 854.7331853537511) rotate(0 240.62230596802578 178.14389132104333)"><path d="M32 0 C122.05 1.83, 213.35 -0.12, 449.24 0 M32 0 C148.98 1.3, 265.06 0.91, 449.24 0 M449.24 0 C471.82 -1.41, 480.31 10.82, 481.24 32 M449.24 0 C471.76 2.29, 479.36 11.4, 481.24 32 M481.24 32 C483.85 135.67, 483.19 235.48, 481.24 324.29 M481.24 32 C479.43 125.85, 480.06 219.3, 481.24 324.29 M481.24 324.29 C482.12 344.93, 470.95 356.63, 449.24 356.29 M481.24 324.29 C479.01 347.4, 468.34 357.48, 449.24 356.29 M449.24 356.29 C361.08 355.83, 273.25 355.8, 32 356.29 M449.24 356.29 C285.04 356.41, 120.21 356.1, 32 356.29 M32 356.29 C9.11 357.32, -1.15 346.59, 0 324.29 M32 356.29 C8.87 357.99, -0.86 347.11, 0 324.29 M0 324.29 C-3.11 234.67, -2.44 148.99, 0 32 M0 324.29 C0.95 229.53, 1.26 136.36, 0 32 M0 32 C1.65 12.28, 12.51 -1.29, 32 0 M0 32 C0.21 8.75, 12.53 -1.38, 32 0" stroke="#1e1e1e" stroke-width="2" fill="none"></path></g><g transform="translate(1335.8017758690826 897.3690589316449) rotate(0 218.48333740234375 139.13143129704207)"><text x="0" y="16.250551175494515" font-family="Virgil, Segoe UI Emoji" font-size="18.550857506272273px" fill="#1e1e1e" text-anchor="start" style="white-space: pre;" direction="ltr" dominant-baseline="alphabetic">* Create an empty stack []</text><text x="0" y="39.43912305833486" font-family="Virgil, Segoe UI Emoji" font-size="18.550857506272273px" fill="#1e1e1e" text-anchor="start" style="white-space: pre;" direction="ltr" dominant-baseline="alphabetic">* if script_sig_instructions[0] == "OP_0":</text><text x="0" y="62.6276949411752" font-family="Virgil, Segoe UI Emoji" font-size="18.550857506272273px" fill="#1e1e1e" text-anchor="start" style="white-space: pre;" direction="ltr" dominant-baseline="alphabetic">    # convert the asm to p2pkh type following </text><text x="0" y="85.81626682401554" font-family="Virgil, Segoe UI Emoji" font-size="18.550857506272273px" fill="#1e1e1e" text-anchor="start" style="white-space: pre;" direction="ltr" dominant-baseline="alphabetic">    the specification</text><text x="0" y="109.00483870685588" font-family="Virgil, Segoe UI Emoji" font-size="18.550857506272273px" fill="#1e1e1e" text-anchor="start" style="white-space: pre;" direction="ltr" dominant-baseline="alphabetic">* Push the signature and public key to the </text><text x="0" y="132.1934105896962" font-family="Virgil, Segoe UI Emoji" font-size="18.550857506272273px" fill="#1e1e1e" text-anchor="start" style="white-space: pre;" direction="ltr" dominant-baseline="alphabetic">stack</text><text x="0" y="155.38198247253658" font-family="Virgil, Segoe UI Emoji" font-size="18.550857506272273px" fill="#1e1e1e" text-anchor="start" style="white-space: pre;" direction="ltr" dominant-baseline="alphabetic">*  Generate the message </text><text x="0" y="178.5705543553769" font-family="Virgil, Segoe UI Emoji" font-size="18.550857506272273px" fill="#1e1e1e" text-anchor="start" style="white-space: pre;" direction="ltr" dominant-baseline="alphabetic">* Pass asm instr, message and stack to </text><text x="0" y="201.75912623821725" font-family="Virgil, Segoe UI Emoji" font-size="18.550857506272273px" fill="#1e1e1e" text-anchor="start" style="white-space: pre;" direction="ltr" dominant-baseline="alphabetic">the verification function to </text><text x="0" y="224.94769812105758" font-family="Virgil, Segoe UI Emoji" font-size="18.550857506272273px" fill="#1e1e1e" text-anchor="start" style="white-space: pre;" direction="ltr" dominant-baseline="alphabetic">check the validity of the transaction.</text><text x="0" y="248.13627000389792" font-family="Virgil, Segoe UI Emoji" font-size="18.550857506272273px" fill="#1e1e1e" text-anchor="start" style="white-space: pre;" direction="ltr" dominant-baseline="alphabetic">* Inside the verification function we implement</text><text x="0" y="271.3248418867383" font-family="Virgil, Segoe UI Emoji" font-size="18.550857506272273px" fill="#1e1e1e" text-anchor="start" style="white-space: pre;" direction="ltr" dominant-baseline="alphabetic">various switch cases to handle OP codes</text></g><g stroke-linecap="round"><g transform="translate(1808.8743704800827 1146.551374005424) rotate(0 159.640128398323 -164.428766631186)"><path d="M1.03 -0.35 C54.3 -54.9, 267.27 -273.48, 320.15 -328.22 M0.11 -1.58 C53.25 -56.4, 266.22 -275.7, 319.66 -330.01" stroke="#1e1e1e" stroke-width="2" fill="none"></path></g><g transform="translate(1808.8743704800827 1146.551374005424) rotate(0 159.640128398323 -164.428766631186)"><path d="M309.36 -307.23 C312.49 -313.7, 317.67 -324.57, 319.66 -330.01 M309.36 -307.23 C312.23 -313.48, 315.04 -320.73, 319.66 -330.01" stroke="#1e1e1e" stroke-width="2" fill="none"></path></g><g transform="translate(1808.8743704800827 1146.551374005424) rotate(0 159.640128398323 -164.428766631186)"><path d="M297.13 -319.18 C304.38 -321.65, 313.76 -328.41, 319.66 -330.01 M297.13 -319.18 C303.64 -321.91, 310.17 -325.52, 319.66 -330.01" stroke="#1e1e1e" stroke-width="2" fill="none"></path></g></g><mask></mask><g transform="translate(1822.3976158478026 947.6346582854728) rotate(313.6229817883938 116.93333435058594 16.55240948432376)"><text x="0" y="23.199857133228186" font-family="Virgil, Segoe UI Emoji" font-size="26.483855174918016px" fill="#1e1e1e" text-anchor="start" style="white-space: pre;" direction="ltr" dominant-baseline="alphabetic">verify_v0_p2wpkh</text></g><g stroke-linecap="round"><g transform="translate(3396.9709647767854 811.6010791735373) rotate(0 236.7227628176954 -2.418923315087966)"><path d="M0.66 0.52 C79.61 -0.47, 395.66 -4.85, 474.33 -5.73 M-0.46 -0.25 C78.37 -1.13, 394.58 -4.14, 473.85 -4.66" stroke="#1e1e1e" stroke-width="2" fill="none"></path></g><g transform="translate(3396.9709647767854 811.6010791735373) rotate(0 236.7227628176954 -2.418923315087966)"><path d="M450.43 4.08 C459.46 2.38, 465.28 -3.43, 473.85 -4.66 M450.43 4.08 C457.17 1.81, 465.48 -0.35, 473.85 -4.66" stroke="#1e1e1e" stroke-width="2" fill="none"></path></g><g transform="translate(3396.9709647767854 811.6010791735373) rotate(0 236.7227628176954 -2.418923315087966)"><path d="M450.28 -13.02 C459.39 -8.75, 465.26 -8.59, 473.85 -4.66 M450.28 -13.02 C457.09 -10.04, 465.45 -6.96, 473.85 -4.66" stroke="#1e1e1e" stroke-width="2" fill="none"></path></g></g><mask></mask><g stroke-linecap="round" transform="translate(3890.8036436199836 586.5283585999047) rotate(0 432.77509501913437 195.00950064717614)"><path d="M32 0 C246.56 -2.66, 462.3 -2.86, 833.55 0 M32 0 C278.84 -1.99, 526.32 -2.1, 833.55 0 M833.55 0 C855.38 -0.79, 866.64 11.89, 865.55 32 M833.55 0 C853.79 -1.13, 865.45 12.43, 865.55 32 M865.55 32 C867.23 163.11, 867.61 293.84, 865.55 358.02 M865.55 32 C866.08 144.25, 866.03 256.89, 865.55 358.02 M865.55 358.02 C865.23 377.77, 853.66 391.64, 833.55 390.02 M865.55 358.02 C863.41 379.97, 855.89 390.05, 833.55 390.02 M833.55 390.02 C596.29 392.08, 360.54 392.17, 32 390.02 M833.55 390.02 C557.18 387.33, 281.53 386.88, 32 390.02 M32 390.02 C8.88 391.96, 0.24 378.87, 0 358.02 M32 390.02 C12.9 390.85, -1.11 378.56, 0 358.02 M0 358.02 C2.27 291.98, 1.91 226.54, 0 32 M0 358.02 C-1.3 262.95, -1.02 167.51, 0 32 M0 32 C0.95 8.81, 11.84 1.94, 32 0 M0 32 C-2.29 10.94, 9.28 0.81, 32 0" stroke="#1e1e1e" stroke-width="2" fill="none"></path></g><g transform="translate(3934.8571664464553 632.4129469874754) rotate(0 384.2583312988281 145.91254568988236)"><text x="0" y="34.085170673156526" font-family="Virgil, Segoe UI Emoji" font-size="38.91001218396863px" fill="#1e1e1e" text-anchor="start" style="white-space: pre;" direction="ltr" dominant-baseline="alphabetic">* Calculate wTXID_commitment</text><text x="0" y="82.72268590311731" font-family="Virgil, Segoe UI Emoji" font-size="38.91001218396863px" fill="#1e1e1e" text-anchor="start" style="white-space: pre;" direction="ltr" dominant-baseline="alphabetic">* Calculate coinbase transaction</text><text x="0" y="131.3602011330781" font-family="Virgil, Segoe UI Emoji" font-size="38.91001218396863px" fill="#1e1e1e" text-anchor="start" style="white-space: pre;" direction="ltr" dominant-baseline="alphabetic">* Calculate coinbases txid</text><text x="0" y="179.99771636303888" font-family="Virgil, Segoe UI Emoji" font-size="38.91001218396863px" fill="#1e1e1e" text-anchor="start" style="white-space: pre;" direction="ltr" dominant-baseline="alphabetic">* Calculate block_header</text><text x="0" y="228.63523159299967" font-family="Virgil, Segoe UI Emoji" font-size="38.91001218396863px" fill="#1e1e1e" text-anchor="start" style="white-space: pre;" direction="ltr" dominant-baseline="alphabetic">* Caclulate coinbase_transaction_hash</text><text x="0" y="277.27274682296047" font-family="Virgil, Segoe UI Emoji" font-size="38.91001218396863px" fill="#1e1e1e" text-anchor="start" style="white-space: pre;" direction="ltr" dominant-baseline="alphabetic"></text></g><g stroke-linecap="round"><g transform="translate(3199.5737961798263 931.5096359089265) rotate(0 -1499.4401094019843 284.24639933325454)"><path d="M-0.05 0.22 C-253.27 94.75, -1018.44 560.09, -1518.44 567.66 C-2018.44 575.24, -2753.33 132.66, -3000.05 45.66 M-1.54 -0.71 C-254.46 93.9, -1016.84 561.35, -1516.21 568.76 C-2015.58 576.18, -2750.73 131.3, -2997.76 43.77" stroke="#1e1e1e" stroke-width="2" fill="none"></path></g><g transform="translate(3199.5737961798263 931.5096359089265) rotate(0 -1499.4401094019843 284.24639933325454)"><path d="M-2972.84 45.79 C-2981.74 43.51, -2992.74 42.34, -2997.76 43.77 M-2972.84 45.79 C-2981.88 45.8, -2991.02 44.29, -2997.76 43.77" stroke="#1e1e1e" stroke-width="2" fill="none"></path></g><g transform="translate(3199.5737961798263 931.5096359089265) rotate(0 -1499.4401094019843 284.24639933325454)"><path d="M-2979.97 61.34 C-2986.28 53.29, -2994.64 46.34, -2997.76 43.77 M-2979.97 61.34 C-2986.38 55.5, -2992.86 48.21, -2997.76 43.77" stroke="#1e1e1e" stroke-width="2" fill="none"></path></g></g><mask></mask><g transform="translate(1325.0090142670745 1534.767731962378) rotate(0 367.4083251953124 22.95478085045545)"><text x="0" y="32.173420839998286" font-family="Virgil, Segoe UI Emoji" font-size="36.72764936072864px" fill="#1e1e1e" text-anchor="start" style="white-space: pre;" direction="ltr" dominant-baseline="alphabetic">Repeat for all the mempool transactions</text></g><g stroke-linecap="round"><g transform="translate(2288.9077026794344 43.116677778140684) rotate(0 -994.8655656404396 345.8397929600979)"><path d="M0.64 -0.3 C-180.04 30.98, -752.21 72.22, -1083.81 187.6 C-1415.41 302.98, -1837.86 607.81, -1988.98 691.96 M-0.49 -1.5 C-181.24 29.98, -752.7 73.23, -1084.18 189.05 C-1415.66 304.88, -1838.26 609.88, -1989.36 693.43" stroke="#1e1e1e" stroke-width="2" fill="none"></path></g><g transform="translate(2288.9077026794344 43.116677778140684) rotate(0 -994.8655656404396 345.8397929600979)"><path d="M-1973.91 673.77 C-1979.34 681.95, -1984.02 687.6, -1989.36 693.43 M-1973.91 673.77 C-1978.56 679.66, -1984.91 686.09, -1989.36 693.43" stroke="#1e1e1e" stroke-width="2" fill="none"></path></g><g transform="translate(2288.9077026794344 43.116677778140684) rotate(0 -994.8655656404396 345.8397929600979)"><path d="M-1964.89 688.3 C-1973.18 691.9, -1980.72 692.94, -1989.36 693.43 M-1964.89 688.3 C-1972.36 689.55, -1981.63 691.27, -1989.36 693.43" stroke="#1e1e1e" stroke-width="2" fill="none"></path></g></g><mask></mask><g transform="translate(1031.1438528429949 97.82452909693899) rotate(345.1696048102666 345.915253972508 21.477415821185758)"><text x="0" y="30.102746014973953" font-family="Virgil, Segoe UI Emoji" font-size="34.36386531389721px" fill="#1e1e1e" text-anchor="start" style="white-space: pre;" direction="ltr" dominant-baseline="alphabetic">Repeat for all the mempool transactions</text></g><g stroke-linecap="round"><g transform="translate(4774.109703746724 782.6125537421765) rotate(0 236.2821979714854 -2.612048864406404)"><path d="M0.01 0.94 C78.72 0.22, 393.67 -3.9, 472.43 -4.98 M-1.45 0.39 C77.08 -0.66, 392.54 -6.18, 471.41 -6.98" stroke="#1e1e1e" stroke-width="2" fill="none"></path></g><g transform="translate(4774.109703746724 782.6125537421765) rotate(0 236.2821979714854 -2.612048864406404)"><path d="M448.04 1.91 C456.99 -1.11, 463.15 -3.69, 471.41 -6.98 M448.04 1.91 C453.49 -1.23, 461.3 -2.44, 471.41 -6.98" stroke="#1e1e1e" stroke-width="2" fill="none"></path></g><g transform="translate(4774.109703746724 782.6125537421765) rotate(0 236.2821979714854 -2.612048864406404)"><path d="M447.8 -15.19 C456.73 -12.84, 462.97 -10.06, 471.41 -6.98 M447.8 -15.19 C453.47 -13.64, 461.34 -10.17, 471.41 -6.98" stroke="#1e1e1e" stroke-width="2" fill="none"></path></g></g><mask></mask><g stroke-linecap="round" transform="translate(5275.7894416198305 676.3602561273641) rotate(0 298.73001920451725 92.0732077975718)"><path d="M32 0 C200.93 -0.78, 370.53 -1.34, 565.46 0 M32 0 C158.65 -1.72, 286 -1.63, 565.46 0 M565.46 0 C587.63 0.02, 596.01 9.53, 597.46 32 M565.46 0 C586.18 -1.62, 597.98 8.74, 597.46 32 M597.46 32 C598.18 70.59, 596.71 106.5, 597.46 152.15 M597.46 32 C596.27 64.3, 597.2 97.58, 597.46 152.15 M597.46 152.15 C596.3 173.15, 586.92 185.75, 565.46 184.15 M597.46 152.15 C596.64 174.74, 588.84 182.03, 565.46 184.15 M565.46 184.15 C408.23 183.64, 251.55 183.34, 32 184.15 M565.46 184.15 C422.39 183.76, 278.68 183.48, 32 184.15 M32 184.15 C9.59 185.37, -1.2 171.84, 0 152.15 M32 184.15 C11.53 184.92, 2.1 171.29, 0 152.15 M0 152.15 C-2.27 124.05, 0.13 91.6, 0 32 M0 152.15 C0.01 120.54, 0.31 88.75, 0 32 M0 32 C1.47 8.68, 11.47 -1.91, 32 0 M0 32 C1.06 11.77, 12.4 -0.66, 32 0" stroke="#1e1e1e" stroke-width="2" fill="none"></path></g><g transform="translate(4802.326678425248 723.2198192562698) rotate(358.5585632334591 195.945317241476 20.422316104033882)"><text x="0" y="28.623918251413876" font-family="Virgil, Segoe UI Emoji" font-size="32.67570576645419px" fill="#1e1e1e" text-anchor="start" style="white-space: pre;" direction="ltr" dominant-baseline="alphabetic">Create block output.txt</text></g><g transform="translate(5324.146874951313 717.1118114237628) rotate(0 205.01666259765625 37.5)"><text x="0" y="17.52000000000001" font-family="Virgil, Segoe UI Emoji" font-size="20.000000000000014px" fill="#1e1e1e" text-anchor="start" style="white-space: pre;" direction="ltr" dominant-baseline="alphabetic">* First line: Block_header</text><text x="0" y="42.520000000000024" font-family="Virgil, Segoe UI Emoji" font-size="20.000000000000014px" fill="#1e1e1e" text-anchor="start" style="white-space: pre;" direction="ltr" dominant-baseline="alphabetic">* Second line: coinbase_transaction_hash</text><text x="0" y="67.52000000000004" font-family="Virgil, Segoe UI Emoji" font-size="20.000000000000014px" fill="#1e1e1e" text-anchor="start" style="white-space: pre;" direction="ltr" dominant-baseline="alphabetic">* Rest lines: valid txids </text></g><g stroke-linecap="round"><g transform="translate(5570.215495517307 878.1461058095738) rotate(0 3.684467595159731 152.37293550348127)"><path d="M0.74 0.93 C2.14 51.52, 6.73 253.24, 7.83 303.97 M-0.34 0.37 C1.01 51.06, 5.98 254.63, 7.12 305.1" stroke="#1e1e1e" stroke-width="2" fill="none"></path></g><g transform="translate(5570.215495517307 878.1461058095738) rotate(0 3.684467595159731 152.37293550348127)"><path d="M-1.98 281.81 C1.92 288.3, 1.33 293.22, 7.12 305.1 M-1.98 281.81 C1.3 289.48, 4.75 298.17, 7.12 305.1" stroke="#1e1e1e" stroke-width="2" fill="none"></path></g><g transform="translate(5570.215495517307 878.1461058095738) rotate(0 3.684467595159731 152.37293550348127)"><path d="M15.11 281.41 C14.77 288.1, 9.94 293.12, 7.12 305.1 M15.11 281.41 C12.53 289.34, 10.11 298.16, 7.12 305.1" stroke="#1e1e1e" stroke-width="2" fill="none"></path></g></g><mask></mask><g transform="translate(5512.307016382898 1279.1834350973136) rotate(0 82.10832977294922 37.5)"><text x="0" y="17.52" font-family="Virgil, Segoe UI Emoji" font-size="20px" fill="#1e1e1e" text-anchor="start" style="white-space: pre;" direction="ltr" dominant-baseline="alphabetic">Run autograder </text><text x="0" y="42.519999999999996" font-family="Virgil, Segoe UI Emoji" font-size="20px" fill="#1e1e1e" text-anchor="start" style="white-space: pre;" direction="ltr" dominant-baseline="alphabetic">and get </text><text x="0" y="67.52" font-family="Virgil, Segoe UI Emoji" font-size="20px" fill="#1e1e1e" text-anchor="start" style="white-space: pre;" direction="ltr" dominant-baseline="alphabetic">valid score</text></g><g stroke-linecap="round" transform="translate(5462.758002725725 1204.945065637909) rotate(0 140.13080424919144 113.03368740542476)"><path d="M83.18 9.12 C96.12 2.58, 115.25 0.98, 131.41 0.28 C147.58 -0.43, 164.8 1.14, 180.15 4.88 C195.51 8.61, 210.78 15.2, 223.52 22.68 C236.26 30.16, 247.93 39.33, 256.6 49.75 C265.27 60.16, 271.72 72.46, 275.56 85.16 C279.41 97.86, 281.42 113.12, 279.67 125.94 C277.92 138.77, 272.3 150.81, 265.07 162.1 C257.84 173.39, 247.87 184.73, 236.29 193.67 C224.72 202.62, 209.98 210.46, 195.62 215.77 C181.26 221.09, 165.96 224.69, 150.12 225.58 C134.28 226.47, 115.88 224.73, 100.58 221.12 C85.27 217.51, 71.08 211.53, 58.3 203.93 C45.52 196.32, 32.92 186.23, 23.91 175.48 C14.9 164.73, 8 151.73, 4.23 139.43 C0.45 127.14, -0.61 114.54, 1.26 101.72 C3.13 88.9, 8.47 74.11, 15.43 62.52 C22.38 50.93, 29.56 41.71, 43.01 32.2 C56.47 22.68, 85.05 9.93, 96.16 5.43 C107.26 0.92, 108.79 3.35, 109.65 5.19 M165.53 2.18 C180.89 2.67, 197.18 9.78, 210.72 16.42 C224.27 23.05, 236.37 31.98, 246.81 41.99 C257.24 52.01, 267.68 64.36, 273.34 76.5 C279 88.63, 280.91 102.25, 280.77 114.81 C280.62 127.37, 277.99 140.09, 272.47 151.85 C266.95 163.61, 258.41 175.22, 247.67 185.38 C236.93 195.54, 221.96 206.21, 208.03 212.81 C194.09 219.42, 179.67 223.16, 164.05 224.98 C148.43 226.8, 130.07 226.34, 114.31 223.73 C98.54 221.12, 83.29 215.66, 69.47 209.35 C55.64 203.04, 41.6 195.58, 31.38 185.85 C21.16 176.12, 13.49 163.1, 8.16 150.98 C2.82 138.85, -0.68 125.78, -0.63 113.12 C-0.58 100.47, 2.63 87.48, 8.47 75.07 C14.3 62.66, 23.72 48.59, 34.39 38.66 C45.05 28.74, 58.94 21.66, 72.45 15.51 C85.97 9.36, 100.21 4.18, 115.48 1.75 C130.74 -0.68, 155.99 0.28, 164.05 0.91 C172.12 1.54, 164.28 3.39, 163.86 5.51" stroke="#1e1e1e" stroke-width="2" fill="none"></path></g></svg>